<svg version="1" xmlns="http://www.w3.org/2000/svg" width="682.667" height="682.667" viewBox="0 0 512.000000 512.000000"><path d="M235 8.1c-37.1 3-75.9 15.5-108 34.9-55.5 33.4-97.8 89.1-113.9 150.2-18.9 71.4-6.8 145 34 205.7C87.9 459.8 152.8 499.6 227 509.1c12.2 1.6 45.8 1.6 58 0 75.8-9.7 140.9-50.3 182.4-113.7 28.9-44.2 43.5-100.4 39.7-152.5-4.5-61.9-28.4-115.4-71.1-159.3C383.2 29.4 310.5 2 235 8.1zm55 42.3c68.1 11.6 126.4 55.2 155.9 116.7 50.6 105.2 7.3 230.2-97.4 281.5-104.7 51.2-230.8 7.8-282.1-97.1-15.7-32.1-22.3-63.7-21.1-99.9 1.1-31.1 7-55.7 20.3-83.4 27-56.6 77.7-98.4 137.8-113.7 7.2-1.8 17.2-3.8 22.1-4.4 5-.6 10.1-1.3 11.5-1.5 5.9-1 44 .3 53 1.8z"/><path d="M133.2 197.1c-11.4 4.5-15.9 18.7-9.3 29.1 3.9 6.1 9.1 8.5 21.5 9.8 25.1 2.6 44.4 11 60.3 26.3 17.3 16.6 26.7 36.4 29.7 62.2 1.6 14.2 3.7 19.2 9.8 23.2 3.5 2.4 5.2 2.8 10.8 2.8 5.6 0 7.3-.4 10.9-2.8 8.7-5.7 10.8-16 7.6-36.7-8.7-57.5-53.6-103.6-110.4-113.4-10.3-1.7-27.2-2-30.9-.5zM353 196.6c-8.2 1.4-22.3 5-27.9 7.1-24 9-52.7 30.4-54.7 40.8-.6 3.3 0 5.1 5.6 15.9 10.1 19.7 11.6 20.1 26.4 5.7 19.8-19.3 36.4-27 64.1-30.1 12.6-1.3 17.7-3.7 21.6-9.8 5.7-9 3.3-20.9-5.4-26.9-3.8-2.6-4.7-2.8-15.6-3-6.4 0-12.7.1-14.1.3z"/></svg>